<svg id="Capa_1" enable-background="new 0 0 512 512" height="512" viewBox="0 0 512 512" width="512" xmlns="http://www.w3.org/2000/svg"><g><g><path d="m456.012 449.951h-400.024c-26.779 0-48.488-21.709-48.488-48.488v-8.081c0-4.463 3.618-8.081 8.081-8.081h480.837c4.463 0 8.081 3.618 8.081 8.081v8.081c.001 26.779-21.708 48.488-48.487 48.488z" fill="#a2aae2"/></g><g><path d="m488.337 385.301h-464.674v-303.049c0-11.158 9.045-20.203 20.203-20.203h424.268c11.158 0 20.203 9.045 20.203 20.203z" fill="#a2aae2"/></g><g><path d="m471.164 62.3v295.726c0 5.579-4.523 10.102-10.102 10.102h-437.4v17.173h464.674v-303.049c.001-10.125-7.455-18.486-17.172-19.952z" fill="#8993da"/></g><g><path d="m126.699 23.663h258.602v400.024h-258.602z" fill="#d3effb" transform="matrix(0 1 -1 0 479.675 -32.325)"/></g><g><path d="m433.788 94.374h22.224v258.602h-22.224z" fill="#b1e4f9"/></g><g><path d="m496.418 385.301h-28.285c4.463 0 8.081 3.618 8.081 8.081v8.081c0 26.779-21.709 48.488-48.488 48.488h28.285c26.779 0 48.488-21.709 48.488-48.488v-8.081c.001-4.463-3.617-8.081-8.081-8.081z" fill="#8993da"/></g><g><path d="m291.655 417.626h-71.31c-8.837 0-16.648-5.743-19.284-14.177l-5.671-18.148h121.22l-5.671 18.148c-2.636 8.434-10.448 14.177-19.284 14.177z" fill="#2b3890"/></g><g><path d="m387.321 319.64h-262.642c-5.579 0-10.102-4.523-10.102-10.102v-137.381h282.845v137.382c.001 5.579-4.522 10.101-10.101 10.101z" fill="#e28086"/></g><g><path d="m375.199 172.157v137.382c0 5.579-4.523 10.102-10.102 10.102h22.224c5.579 0 10.102-4.523 10.102-10.102v-137.382z" fill="#dd636e"/></g><g><path d="m387.321 127.709h-262.642c-5.579 0-10.102 4.523-10.102 10.102v34.346h282.845v-34.346c.001-5.579-4.522-10.102-10.101-10.102z" fill="#da4a54"/></g><g><path d="m387.321 127.709h-22.224c5.579 0 10.102 4.523 10.102 10.102v34.346h22.224v-34.346c0-5.579-4.523-10.102-10.102-10.102z" fill="#d82e3d"/></g><g><circle cx="155.696" cy="286.603" r="8.793"/><path d="m55.99 316c-4.143 0-7.5 3.357-7.5 7.5v29.48c0 4.143 3.357 7.5 7.5 7.5h400.02c4.143 0 7.5-3.357 7.5-7.5v-258.61c0-4.143-3.357-7.5-7.5-7.5h-400.02c-4.143 0-7.5 3.357-7.5 7.5v194.13c0 4.143 3.357 7.5 7.5 7.5s7.5-3.357 7.5-7.5v-186.63h385.02v243.61h-385.02v-21.98c0-4.143-3.357-7.5-7.5-7.5z"/><path d="m496.42 377.8h-.58v-212c0-4.143-3.357-7.5-7.5-7.5s-7.5 3.357-7.5 7.5v212h-449.68v-295.55c0-7.003 5.702-12.7 12.71-12.7h424.26c7.008 0 12.71 5.697 12.71 12.7v48.55c0 4.143 3.357 7.5 7.5 7.5s7.5-3.357 7.5-7.5v-48.55c0-15.274-12.431-27.7-27.71-27.7h-424.26c-15.279 0-27.71 12.426-27.71 27.7v295.55h-.58c-8.591 0-15.58 6.989-15.58 15.58v8.08c0 30.873 25.117 55.99 55.99 55.99h302.94c4.143 0 7.5-3.357 7.5-7.5s-3.357-7.5-7.5-7.5h-302.94c-22.603 0-40.99-18.388-40.99-40.99v-8.08c0-.32.26-.58.58-.58h174.297l4.027 12.887c3.634 11.627 14.26 19.439 26.441 19.439h71.311c12.182 0 22.808-7.812 26.441-19.439l4.027-12.887h174.296c.32 0 .58.26.58.58v8.08c0 22.603-18.388 40.99-40.99 40.99h-62.08c-4.143 0-7.5 3.357-7.5 7.5s3.357 7.5 7.5 7.5h62.08c30.873 0 55.99-25.117 55.99-55.99v-8.08c0-8.591-6.989-15.58-15.58-15.58zm-192.64 23.412c-1.667 5.332-6.539 8.914-12.125 8.914h-71.311c-5.586 0-10.458-3.582-12.125-8.914l-2.629-8.412h100.818z"/><path d="m191.35 211.981h173.748c4.143 0 7.5-3.357 7.5-7.5s-3.357-7.5-7.5-7.5h-173.748c-4.143 0-7.5 3.357-7.5 7.5s3.357 7.5 7.5 7.5z"/><path d="m191.35 244.307h143.443c4.143 0 7.5-3.357 7.5-7.5s-3.357-7.5-7.5-7.5h-143.443c-4.143 0-7.5 3.357-7.5 7.5s3.357 7.5 7.5 7.5z"/><path d="m191.35 294.104h22.224c4.143 0 7.5-3.357 7.5-7.5s-3.357-7.5-7.5-7.5h-22.224c-4.143 0-7.5 3.357-7.5 7.5s3.357 7.5 7.5 7.5z"/><path d="m365.098 279.104h-22.224c-4.143 0-7.5 3.357-7.5 7.5s3.357 7.5 7.5 7.5h22.224c4.143 0 7.5-3.357 7.5-7.5s-3.358-7.5-7.5-7.5z"/><path d="m387.321 327.141c9.705 0 17.602-7.896 17.602-17.602v-171.728c0-9.705-7.896-17.602-17.602-17.602h-262.642c-9.705 0-17.602 7.896-17.602 17.602v171.729c0 9.705 7.896 17.602 17.602 17.602h262.642zm-262.642-191.932h262.643c1.435 0 2.602 1.167 2.602 2.602v26.846h-267.847v-26.846c0-1.435 1.167-2.602 2.602-2.602zm-2.602 174.33v-129.883h267.846v129.883c0 1.435-1.167 2.602-2.602 2.602h-262.642c-1.435 0-2.602-1.167-2.602-2.602z"/><path d="m155.824 261.333c4.143 0 7.5-3.357 7.5-7.5v-49.352c0-4.143-3.357-7.5-7.5-7.5s-7.5 3.357-7.5 7.5v49.352c0 4.143 3.358 7.5 7.5 7.5z"/></g></g></svg>